
<svg id="svg" version="1.1" xmlns="http://www.w3.org/2000/svg" xmlns:xlink="http://www.w3.org/1999/xlink" width="400" height="400" viewBox="0, 0, 400,400"><g id="svgg"><path id="path0" d="M229.600 88.635 L 202.600 91.993 174.000 88.793 C 158.270 87.034,145.189 85.595,144.930 85.597 C 144.672 85.599,142.562 87.805,140.241 90.500 L 136.021 95.400 136.011 112.916 L 136.000 130.432 141.500 141.316 C 144.525 147.302,147.067 152.356,147.149 152.548 C 147.231 152.739,144.027 150.399,140.029 147.348 C 136.031 144.296,132.331 141.479,131.808 141.087 L 130.857 140.375 126.837 147.076 C 124.626 150.762,122.948 153.904,123.109 154.060 C 123.399 154.340,170.593 176.000,170.915 176.000 C 171.007 176.000,174.843 171.674,179.437 166.386 C 186.788 157.926,187.823 156.882,188.056 157.686 C 188.202 158.189,188.534 161.457,188.793 164.948 L 189.265 171.296 182.693 181.156 L 176.121 191.015 180.311 219.808 C 182.615 235.643,184.542 248.649,184.593 248.709 C 184.644 248.769,188.561 249.910,193.298 251.245 L 201.911 253.670 210.805 251.252 C 215.697 249.922,219.748 248.781,219.808 248.717 C 219.867 248.653,221.453 235.473,223.331 219.429 L 226.746 190.258 220.182 179.571 L 213.618 168.884 214.372 163.013 C 214.786 159.783,215.205 157.061,215.303 156.964 C 215.401 156.866,219.323 160.884,224.020 165.893 C 228.716 170.902,232.676 175.051,232.820 175.114 C 233.060 175.218,280.730 154.204,281.105 153.829 C 281.380 153.553,272.750 140.756,272.128 140.517 C 271.475 140.267,267.434 142.919,260.204 148.343 C 257.566 150.322,255.342 151.876,255.262 151.795 C 255.181 151.715,257.720 146.970,260.903 141.251 L 266.690 130.854 266.986 112.847 L 267.281 94.841 262.952 90.020 C 259.497 86.173,258.419 85.208,257.612 85.239 C 257.055 85.260,244.450 86.789,229.600 88.635 M170.869 103.465 L 183.938 106.530 187.869 105.565 C 193.708 104.131,208.534 104.174,216.070 105.647 L 221.140 106.638 233.057 103.539 C 239.611 101.835,245.029 100.496,245.098 100.564 C 245.166 100.633,237.162 108.492,227.311 118.028 C 217.460 127.565,207.662 137.057,205.538 139.121 L 201.677 142.874 180.738 122.983 C 155.141 98.666,156.933 100.400,157.407 100.400 C 157.623 100.399,163.681 101.779,170.869 103.465 M125.693 103.200 C 125.693 103.970,125.775 104.285,125.876 103.900 C 125.976 103.515,125.976 102.885,125.876 102.500 C 125.775 102.115,125.693 102.430,125.693 103.200 M280.705 121.483 C 281.202 121.579,281.922 121.575,282.305 121.475 C 282.687 121.375,282.280 121.296,281.400 121.301 C 280.520 121.305,280.207 121.387,280.705 121.483 M295.632 204.230 C 295.125 209.053,294.326 216.510,293.855 220.800 L 293.000 228.600 280.066 248.078 L 267.132 267.556 268.198 279.176 L 269.264 290.797 262.032 301.784 C 258.054 307.827,254.800 312.872,254.800 312.994 C 254.800 313.116,259.840 308.677,266.000 303.129 C 274.805 295.200,277.200 292.835,277.200 292.074 C 277.200 291.542,276.558 286.324,275.773 280.479 C 274.988 274.635,274.419 269.571,274.510 269.226 C 274.600 268.882,280.830 260.361,288.353 250.291 C 295.877 240.221,302.123 231.744,302.234 231.455 C 302.395 231.036,297.115 197.220,296.671 195.830 C 296.606 195.626,296.138 199.406,295.632 204.230 M106.478 198.000 C 106.220 199.210,104.662 207.197,103.016 215.750 L 100.024 231.299 113.679 249.950 C 121.190 260.207,127.495 268.812,127.692 269.070 C 127.997 269.472,126.832 287.764,126.204 292.436 L 126.011 293.873 136.878 303.436 C 142.854 308.696,148.068 313.232,148.464 313.517 C 148.859 313.801,145.756 308.728,141.567 302.243 L 133.952 290.452 134.977 280.526 C 135.542 275.067,136.002 270.058,136.002 269.396 C 136.000 268.503,132.619 262.866,122.925 247.596 L 109.850 227.000 108.399 211.400 C 107.028 196.658,106.922 195.921,106.478 198.000 M209.002 261.577 L 200.203 263.098 191.802 261.813 L 183.400 260.527 173.600 267.127 C 168.210 270.757,163.768 273.745,163.729 273.768 C 163.691 273.790,163.226 279.130,162.697 285.635 L 161.734 297.462 159.000 301.999 C 155.733 307.422,155.786 306.726,158.354 310.532 L 160.441 313.625 161.615 312.789 C 164.970 310.400,174.423 306.801,182.485 304.844 C 200.567 300.453,209.618 301.333,236.868 310.128 L 243.537 312.280 245.524 309.434 L 247.511 306.589 244.593 302.444 C 241.167 297.578,241.405 298.702,240.754 284.298 L 240.271 273.597 230.035 266.917 C 218.134 259.149,220.122 259.654,209.002 261.577 M224.882 271.282 C 228.857 274.187,231.941 276.620,231.736 276.688 C 231.530 276.757,226.150 278.955,219.781 281.573 C 213.412 284.192,208.154 286.288,208.098 286.231 C 207.959 286.093,217.292 266.000,217.495 266.000 C 217.582 266.000,220.906 268.377,224.882 271.282 M190.559 276.576 C 192.881 281.843,194.710 286.223,194.623 286.310 C 194.427 286.507,171.215 276.276,171.230 276.000 C 171.255 275.564,185.815 266.456,186.067 266.719 C 186.215 266.873,188.237 271.309,190.559 276.576 " stroke="none" fill="#ba1e18" fill-rule="evenodd"></path><path id="path1" d="M28.549 69.737 C 31.343 97.000,67.859 117.065,121.900 121.032 L 125.600 121.303 125.600 112.913 C 125.600 108.298,125.715 102.905,125.855 100.927 L 126.111 97.330 118.517 97.066 C 83.260 95.840,51.911 85.958,31.439 69.617 L 28.279 67.094 28.549 69.737 M372.000 69.889 C 352.218 85.766,321.403 95.340,287.067 96.276 L 277.934 96.524 278.213 108.762 C 278.367 115.493,278.607 121.106,278.746 121.235 C 279.621 122.044,299.923 120.343,308.400 118.750 C 341.056 112.613,364.837 95.367,373.363 71.640 C 374.721 67.860,374.647 67.765,372.000 69.889 M138.558 173.500 C 139.621 182.606,144.762 185.514,152.990 181.663 C 154.491 180.961,155.648 180.325,155.560 180.251 C 155.109 179.870,138.863 171.200,138.599 171.200 C 138.429 171.200,138.411 172.235,138.558 173.500 M255.747 175.717 C 246.248 180.745,246.496 180.369,251.451 182.234 C 259.091 185.109,264.945 180.836,264.324 172.837 L 264.200 171.242 255.747 175.717 " stroke="none" fill="#fafafa" fill-rule="evenodd"></path><path id="path2" d="M0.002 24.500 C 0.007 27.376,2.665 41.052,5.063 50.544 C 16.161 94.462,40.301 123.594,69.733 128.589 L 71.267 128.849 66.506 131.196 C 53.812 137.455,43.823 149.147,39.505 162.800 C 37.669 168.606,37.445 167.884,41.893 170.478 C 59.761 180.898,79.470 187.200,94.184 187.200 C 95.623 187.200,96.800 187.272,96.800 187.361 C 96.800 187.449,88.866 207.730,79.169 232.429 C 66.477 264.756,61.631 277.534,61.869 278.044 C 63.323 281.157,80.070 298.732,88.200 305.677 C 106.559 321.360,131.767 336.645,152.689 344.780 C 160.281 347.732,156.201 345.594,181.262 359.753 L 202.325 371.652 223.662 358.515 C 244.943 345.413,245.012 345.375,249.539 344.083 C 269.365 338.426,291.602 325.339,312.645 306.945 C 322.777 298.088,341.600 278.100,341.600 276.197 C 341.600 275.873,333.770 255.620,324.200 231.191 C 314.630 206.762,306.800 186.734,306.800 186.684 C 306.800 186.635,308.855 186.660,311.366 186.739 C 324.924 187.170,344.524 180.520,362.287 169.463 C 366.605 166.775,366.586 166.861,364.025 161.400 C 360.250 153.351,349.725 142.540,334.200 130.767 L 329.673 127.334 334.737 126.495 C 359.321 122.418,378.327 104.181,389.907 73.557 C 394.621 61.091,399.022 42.394,399.862 31.267 L 400.124 27.800 394.951 32.800 C 362.215 64.444,319.927 82.774,281.615 81.928 L 275.831 81.800 270.045 75.400 C 264.782 69.579,264.148 69.008,263.029 69.089 C 262.353 69.138,247.971 70.823,231.069 72.833 L 200.338 76.488 169.869 72.616 C 153.111 70.486,139.130 68.669,138.800 68.578 C 138.420 68.473,136.089 70.767,132.440 74.836 C 125.026 83.105,126.296 82.437,117.494 82.698 C 82.088 83.744,41.896 64.459,5.807 29.107 C -0.539 22.891,-0.001 23.318,0.002 24.500 M31.082 69.055 C 49.745 84.887,83.719 95.765,117.363 96.681 L 126.125 96.920 125.879 109.110 C 125.743 115.815,125.578 121.355,125.512 121.422 C 125.078 121.856,109.069 120.027,100.400 118.553 C 56.661 111.118,30.874 93.519,28.233 69.300 C 27.902 66.268,27.806 66.276,31.082 69.055 M374.552 68.700 C 367.324 98.947,327.623 121.575,281.743 121.598 L 278.485 121.600 278.243 114.900 C 278.109 111.215,277.900 105.492,277.778 102.182 L 277.556 96.165 285.261 96.086 C 313.391 95.799,341.074 88.889,360.758 77.241 C 365.264 74.575,373.208 68.958,373.778 68.036 C 374.307 67.180,374.812 67.613,374.552 68.700 M262.414 89.206 C 264.496 91.519,266.499 93.769,266.864 94.206 C 267.473 94.933,267.501 96.516,267.201 113.000 L 266.873 131.000 262.598 138.600 C 258.413 146.038,256.000 150.568,256.000 150.986 C 256.000 151.101,258.104 149.639,260.675 147.736 C 266.544 143.394,271.516 140.000,272.010 140.000 C 272.296 140.000,279.631 150.597,281.323 153.455 C 281.562 153.860,268.140 160.001,238.513 173.043 L 232.826 175.546 224.061 166.229 L 215.296 156.912 214.590 162.956 L 213.884 169.000 220.342 179.466 C 223.895 185.224,226.798 190.352,226.795 190.866 C 226.789 192.282,220.128 248.811,219.953 248.943 C 219.869 249.006,215.779 250.147,210.865 251.478 L 201.929 253.898 193.177 251.449 C 185.010 249.164,184.411 248.933,184.224 248.000 C 184.113 247.450,182.195 234.387,179.961 218.971 L 175.900 190.943 182.463 181.103 L 189.026 171.264 188.521 164.932 C 188.243 161.449,187.967 158.250,187.908 157.822 C 187.830 157.261,185.465 159.737,179.435 166.688 L 171.071 176.333 169.035 175.425 C 164.458 173.384,124.519 155.073,123.518 154.556 L 122.436 153.998 126.517 147.199 C 128.762 143.460,130.745 140.400,130.924 140.400 C 131.103 140.400,134.658 143.004,138.825 146.188 C 142.991 149.371,146.400 151.883,146.400 151.771 C 146.400 151.659,144.060 146.909,141.200 141.215 L 136.000 130.863 136.000 112.998 L 136.000 95.132 140.300 90.148 C 143.645 86.271,144.778 85.203,145.400 85.342 C 145.840 85.441,158.890 86.926,174.400 88.643 L 202.600 91.764 230.200 88.327 C 245.380 86.436,257.986 84.915,258.214 84.945 C 258.442 84.975,260.332 86.893,262.414 89.206 M162.600 104.323 C 163.920 105.644,173.261 114.568,183.357 124.154 L 201.715 141.584 212.757 130.860 C 218.831 124.961,227.885 116.190,232.878 111.367 C 237.871 106.545,241.809 102.548,241.629 102.484 C 241.450 102.420,236.739 103.553,231.162 105.002 C 221.898 107.409,220.864 107.601,219.210 107.220 C 208.639 104.784,194.785 104.608,186.876 106.809 L 184.200 107.554 173.000 104.950 C 166.840 103.518,161.440 102.251,161.000 102.134 C 160.506 102.003,161.119 102.841,162.600 104.323 M89.588 142.371 C 91.385 146.709,99.365 150.900,107.599 151.832 C 110.543 152.165,110.523 151.395,107.852 161.400 L 105.717 169.400 101.759 169.720 C 86.637 170.945,65.469 166.586,60.650 161.256 C 58.518 158.898,68.947 149.242,78.304 144.911 C 86.002 141.348,88.895 140.697,89.588 142.371 M324.600 145.004 C 332.102 148.583,339.146 154.047,343.666 159.793 C 344.745 161.164,344.615 161.272,339.568 163.173 C 326.320 168.166,305.869 171.214,298.822 169.247 C 297.959 169.006,293.686 154.668,293.611 151.764 C 293.605 151.511,295.188 151.133,297.381 150.864 C 304.966 149.931,311.056 147.095,313.973 143.135 L 315.347 141.270 318.173 142.278 C 319.728 142.833,322.620 144.060,324.600 145.004 M147.292 174.700 C 158.126 180.564,157.759 180.198,154.522 181.910 C 144.880 187.010,138.287 183.602,137.695 173.211 C 137.582 171.225,137.575 169.600,137.680 169.600 C 137.784 169.600,142.110 171.895,147.292 174.700 M265.239 173.844 C 264.265 181.811,260.692 185.146,254.344 184.016 C 251.708 183.547,245.847 180.926,245.909 180.245 C 245.960 179.687,264.960 169.682,265.336 170.015 C 265.520 170.178,265.477 171.901,265.239 173.844 M138.675 191.337 C 144.877 196.322,150.097 200.403,150.275 200.406 C 150.454 200.409,152.805 199.389,155.500 198.139 C 158.195 196.889,160.483 195.949,160.584 196.051 C 160.685 196.152,163.219 201.267,166.214 207.418 L 171.660 218.600 174.030 235.558 C 175.333 244.885,176.400 252.751,176.400 253.037 C 176.400 253.323,171.405 256.925,165.300 261.042 C 159.195 265.159,154.152 268.561,154.093 268.603 C 154.035 268.645,153.510 273.432,152.928 279.240 C 152.345 285.048,151.750 289.939,151.606 290.109 C 151.461 290.278,149.762 286.021,147.830 280.649 L 144.317 270.880 148.148 264.540 L 151.980 258.200 150.581 250.600 C 149.812 246.420,148.106 237.413,146.791 230.585 C 145.476 223.757,144.400 218.042,144.400 217.885 C 144.400 216.961,143.606 217.874,142.996 219.500 C 141.703 222.948,136.707 234.000,136.451 233.981 C 136.313 233.971,133.269 229.639,129.687 224.356 L 123.174 214.749 124.429 198.474 C 125.842 180.133,125.744 180.858,126.708 181.683 C 127.089 182.009,132.474 186.353,138.675 191.337 M278.028 198.400 L 279.750 214.200 273.813 223.600 C 270.548 228.770,267.664 233.234,267.403 233.521 C 267.030 233.931,266.132 232.086,263.165 224.816 C 260.556 218.423,259.314 215.806,259.121 216.295 C 257.967 219.208,250.759 257.442,251.224 258.181 C 251.506 258.632,253.434 261.739,255.507 265.086 L 259.276 271.171 255.960 281.086 C 252.098 292.632,252.581 292.924,251.200 278.200 C 250.445 270.151,250.182 268.496,249.572 267.954 C 249.172 267.599,243.660 264.284,237.323 260.589 C 230.985 256.893,225.663 253.752,225.495 253.609 C 225.192 253.352,226.458 243.870,228.032 234.600 C 229.738 224.549,230.330 222.461,233.192 216.400 C 234.699 213.210,237.229 207.450,238.815 203.600 C 240.401 199.750,241.746 196.545,241.804 196.478 C 241.863 196.411,244.470 197.096,247.597 197.999 L 253.284 199.642 256.942 196.833 C 258.954 195.287,264.020 191.343,268.200 188.067 C 272.380 184.791,275.914 182.221,276.053 182.356 C 276.192 182.490,277.081 189.710,278.028 198.400 M299.770 213.205 L 302.751 231.355 288.682 250.177 C 275.867 267.323,274.623 269.125,274.714 270.400 C 274.770 271.170,275.452 276.545,276.231 282.343 C 277.009 288.142,277.591 292.939,277.523 293.003 C 273.629 296.661,254.203 313.937,254.100 313.834 C 254.019 313.752,257.345 308.534,261.492 302.237 L 269.033 290.790 268.142 281.095 C 267.652 275.763,267.198 270.498,267.133 269.397 L 267.015 267.393 279.911 247.965 L 292.807 228.537 294.604 211.834 C 295.592 202.647,296.400 195.026,296.400 194.899 C 296.400 194.771,296.488 194.754,296.595 194.861 C 296.702 194.968,298.131 203.223,299.770 213.205 M108.593 211.124 L 110.032 226.827 123.233 247.658 L 136.434 268.488 135.415 278.344 C 134.855 283.765,134.398 288.776,134.398 289.480 C 134.400 290.460,136.190 293.536,142.039 302.608 C 146.240 309.124,149.615 314.513,149.539 314.583 C 149.232 314.865,126.191 294.271,126.079 293.615 C 126.013 293.226,126.328 288.344,126.779 282.765 C 127.231 277.186,127.600 271.855,127.600 270.918 C 127.600 269.308,126.831 268.164,113.800 250.400 C 106.210 240.053,100.000 231.293,100.000 230.934 C 100.000 229.436,106.751 195.018,106.997 195.263 C 107.083 195.350,107.802 202.487,108.593 211.124 M316.791 257.471 C 322.557 271.737,323.225 273.626,322.743 274.296 C 320.235 277.781,312.189 285.986,311.923 285.331 C 311.555 284.424,303.866 250.027,303.846 249.200 C 303.827 248.422,309.715 240.745,310.045 241.117 C 310.183 241.273,313.219 248.632,316.791 257.471 M96.434 245.012 C 98.285 247.109,99.847 248.960,99.905 249.127 C 99.963 249.293,98.410 255.813,96.454 263.615 C 94.499 271.417,92.584 279.510,92.200 281.600 C 91.104 287.563,91.582 287.572,86.292 281.498 C 83.717 278.540,81.225 275.631,80.754 275.033 L 79.899 273.946 86.245 257.573 C 89.735 248.568,92.697 241.200,92.829 241.200 C 92.960 241.200,94.583 242.915,96.434 245.012 M229.692 266.444 C 235.471 270.209,240.243 273.327,240.296 273.373 C 240.411 273.476,241.594 294.413,241.597 296.426 C 241.599 297.554,242.228 298.743,244.600 302.108 C 248.150 307.144,248.012 306.280,245.767 309.425 C 243.360 312.799,244.035 312.718,237.101 310.455 C 219.970 304.863,209.026 302.405,201.251 302.402 C 189.653 302.397,169.576 307.780,161.516 313.056 C 160.920 313.446,160.362 313.683,160.276 313.583 C 158.812 311.867,155.991 307.000,156.178 306.512 C 156.312 306.165,157.569 303.973,158.973 301.641 L 161.525 297.400 162.381 286.400 C 162.853 280.350,163.320 275.006,163.421 274.524 C 163.549 273.909,166.546 271.654,173.447 266.980 L 183.291 260.314 191.945 261.581 L 200.600 262.848 209.600 261.266 C 214.550 260.396,218.731 259.665,218.892 259.642 C 219.052 259.619,223.912 262.680,229.692 266.444 M216.849 269.259 C 216.431 270.216,214.715 273.950,213.033 277.555 C 211.352 281.160,210.052 284.185,210.144 284.277 C 210.301 284.434,227.148 277.648,229.103 276.640 C 229.953 276.202,229.672 275.932,224.327 272.046 C 217.342 266.967,217.776 267.129,216.849 269.259 M179.268 271.770 C 176.115 273.821,173.562 275.657,173.595 275.850 C 173.649 276.167,192.856 284.915,193.012 284.694 C 193.216 284.404,185.732 268.020,185.400 268.029 C 185.180 268.035,182.420 269.718,179.268 271.770 M214.860 310.379 C 222.180 311.635,228.333 313.781,234.751 317.316 L 238.502 319.382 238.286 322.191 C 237.895 327.294,234.645 333.507,230.346 337.372 C 227.683 339.767,227.863 339.939,226.975 334.158 L 226.200 329.116 224.800 331.012 C 221.322 335.719,205.846 346.769,202.694 346.794 C 198.970 346.824,182.345 336.101,178.937 331.471 C 177.982 330.174,177.200 329.245,177.200 329.408 C 177.200 329.984,175.956 337.808,175.781 338.327 C 175.264 339.867,168.255 332.887,166.386 328.970 C 163.420 322.757,164.118 319.651,168.988 317.375 C 183.389 310.646,200.874 307.979,214.860 310.379 " stroke="none" fill="#040404" fill-rule="evenodd"></path><path id="path3" d="M358.378 94.700 L 357.000 96.200 358.500 94.822 C 359.896 93.538,360.184 93.200,359.878 93.200 C 359.812 93.200,359.137 93.875,358.378 94.700 M277.756 96.571 C 277.635 96.885,277.604 97.560,277.686 98.071 C 277.795 98.754,277.888 98.604,278.037 97.500 C 278.247 95.947,278.136 95.581,277.756 96.571 M288.500 96.276 C 288.885 96.376,289.515 96.376,289.900 96.276 C 290.285 96.175,289.970 96.093,289.200 96.093 C 288.430 96.093,288.115 96.175,288.500 96.276 M117.705 97.087 C 118.314 97.179,119.214 97.177,119.705 97.082 C 120.197 96.987,119.700 96.911,118.600 96.914 C 117.500 96.917,117.097 96.995,117.705 97.087 M158.683 102.085 C 159.497 102.918,160.251 103.600,160.360 103.600 C 160.468 103.600,159.966 102.990,159.244 102.245 C 158.317 101.289,158.088 100.830,158.465 100.686 C 158.759 100.573,158.596 100.501,158.102 100.526 C 157.264 100.567,157.303 100.671,158.683 102.085 M125.734 107.200 C 125.734 108.850,125.805 109.525,125.891 108.700 C 125.978 107.875,125.978 106.525,125.891 105.700 C 125.805 104.875,125.734 105.550,125.734 107.200 M237.200 108.200 C 235.561 109.850,234.310 111.200,234.420 111.200 C 234.530 111.200,235.961 109.850,237.600 108.200 C 239.239 106.550,240.490 105.200,240.380 105.200 C 240.270 105.200,238.839 106.550,237.200 108.200 M166.200 109.200 C 167.283 110.300,168.260 111.200,168.370 111.200 C 168.480 111.200,167.683 110.300,166.600 109.200 C 165.517 108.100,164.540 107.200,164.430 107.200 C 164.320 107.200,165.117 108.100,166.200 109.200 M278.114 110.600 C 278.117 111.700,278.195 112.103,278.287 111.495 C 278.379 110.886,278.377 109.986,278.282 109.495 C 278.187 109.003,278.111 109.500,278.114 110.600 M266.948 115.600 C 266.948 117.910,267.014 118.855,267.095 117.700 C 267.176 116.545,267.176 114.655,267.095 113.500 C 267.014 112.345,266.948 113.290,266.948 115.600 M174.600 117.200 C 175.683 118.300,176.660 119.200,176.770 119.200 C 176.880 119.200,176.083 118.300,175.000 117.200 C 173.917 116.100,172.940 115.200,172.830 115.200 C 172.720 115.200,173.517 116.100,174.600 117.200 M224.800 120.200 C 223.161 121.850,221.910 123.200,222.020 123.200 C 222.130 123.200,223.561 121.850,225.200 120.200 C 226.839 118.550,228.090 117.200,227.980 117.200 C 227.870 117.200,226.439 118.550,224.800 120.200 M283.505 121.483 C 284.002 121.579,284.722 121.575,285.105 121.475 C 285.487 121.375,285.080 121.296,284.200 121.301 C 283.320 121.305,283.007 121.387,283.505 121.483 M182.600 124.800 C 183.683 125.900,184.660 126.800,184.770 126.800 C 184.880 126.800,184.083 125.900,183.000 124.800 C 181.917 123.700,180.940 122.800,180.830 122.800 C 180.720 122.800,181.517 123.700,182.600 124.800 M212.191 132.500 L 209.000 135.800 212.300 132.609 C 214.115 130.855,215.600 129.370,215.600 129.309 C 215.600 129.018,215.154 129.435,212.191 132.500 M190.783 132.500 C 191.764 133.545,192.619 134.400,192.683 134.400 C 192.984 134.400,192.666 134.041,190.900 132.383 L 189.000 130.600 190.783 132.500 M199.000 140.400 C 200.083 141.500,201.060 142.400,201.170 142.400 C 201.280 142.400,200.483 141.500,199.400 140.400 C 198.317 139.300,197.340 138.400,197.230 138.400 C 197.120 138.400,197.917 139.300,199.000 140.400 M85.200 142.235 C 75.248 145.601,66.170 151.655,61.715 157.899 L 59.878 160.473 61.039 161.424 C 64.300 164.097,72.036 167.064,79.380 168.459 C 85.043 169.534,104.164 170.034,105.237 169.134 C 105.751 168.703,110.000 153.832,110.000 152.463 C 110.000 152.272,108.841 152.007,107.425 151.875 C 99.647 151.149,92.418 147.503,89.759 142.966 C 88.546 140.897,88.961 140.963,85.200 142.235 M314.604 142.393 C 312.416 146.624,304.575 150.382,296.500 151.070 C 294.905 151.206,293.605 151.426,293.610 151.559 C 293.643 152.325,297.968 168.901,298.194 169.127 C 298.780 169.713,313.760 169.356,318.319 168.649 C 326.375 167.398,338.998 163.808,343.339 161.533 L 344.479 160.936 342.486 158.542 C 337.041 151.999,327.697 145.818,317.887 142.271 L 315.174 141.290 314.604 142.393 M217.600 159.325 C 217.600 159.394,218.185 159.979,218.900 160.625 L 220.200 161.800 219.025 160.500 C 217.930 159.288,217.600 159.016,217.600 159.325 M223.600 165.725 C 223.600 165.794,224.185 166.379,224.900 167.025 L 226.200 168.200 225.025 166.900 C 223.930 165.688,223.600 165.416,223.600 165.725 M264.493 172.400 C 264.493 173.170,264.575 173.485,264.676 173.100 C 264.776 172.715,264.776 172.085,264.676 171.700 C 264.575 171.315,264.493 171.630,264.493 172.400 M229.600 172.125 C 229.600 172.194,230.185 172.779,230.900 173.425 L 232.200 174.600 231.025 173.300 C 229.930 172.088,229.600 171.816,229.600 172.125 M125.832 183.300 C 125.610 185.029,123.667 209.913,123.496 213.200 C 123.406 214.926,123.670 215.390,129.954 224.541 L 136.505 234.082 138.902 228.741 C 140.221 225.803,141.805 222.144,142.422 220.609 C 143.635 217.592,144.177 217.046,144.530 218.483 C 144.896 219.969,149.440 243.606,150.795 251.074 L 152.043 257.948 151.165 259.674 C 150.682 260.623,148.970 263.520,147.361 266.110 L 144.435 270.821 147.893 280.453 C 150.207 286.896,151.437 289.839,151.610 289.342 C 151.752 288.934,152.295 284.219,152.816 278.865 C 153.336 273.511,153.951 268.900,154.181 268.618 C 154.412 268.336,159.370 264.904,165.200 260.992 C 171.030 257.079,175.932 253.765,176.093 253.626 C 176.254 253.488,175.301 245.578,173.974 236.048 L 171.564 218.722 166.108 207.461 C 163.107 201.267,160.611 196.140,160.560 196.067 C 160.510 195.995,158.158 197.017,155.334 198.338 C 151.039 200.349,150.102 200.658,149.600 200.226 C 147.529 198.445,126.411 181.600,126.249 181.600 C 126.139 181.600,125.951 182.365,125.832 183.300 M264.677 190.973 C 258.568 195.718,253.347 199.600,253.075 199.600 C 252.802 199.600,250.184 198.894,247.256 198.031 L 241.933 196.463 241.332 197.931 C 238.385 205.136,233.978 215.226,232.567 218.000 C 230.212 222.630,229.088 227.703,226.428 245.715 L 225.318 253.230 226.359 253.948 C 226.932 254.342,232.575 257.684,238.900 261.373 C 246.606 265.867,250.400 268.298,250.401 268.740 C 250.401 269.525,252.359 289.133,252.523 290.000 C 252.586 290.330,254.104 286.221,255.897 280.869 L 259.158 271.138 254.896 264.308 L 250.634 257.477 254.777 236.639 C 257.056 225.177,259.006 215.645,259.111 215.457 C 259.215 215.268,261.011 219.273,263.102 224.357 C 265.193 229.440,267.015 233.598,267.151 233.596 C 267.288 233.595,268.318 232.110,269.441 230.296 C 270.564 228.483,273.317 224.096,275.560 220.547 L 279.637 214.095 277.990 198.947 C 277.084 190.616,276.217 183.473,276.063 183.073 C 275.828 182.459,274.041 183.699,264.677 190.973 M92.676 241.477 C 92.558 241.667,89.655 249.081,86.224 257.952 L 79.985 274.080 84.550 279.340 C 87.060 282.233,89.557 285.011,90.098 285.514 L 91.082 286.429 91.976 281.914 C 92.467 279.431,94.471 271.030,96.428 263.245 L 99.987 249.091 96.714 245.445 C 94.913 243.440,93.317 241.649,93.165 241.465 C 93.014 241.281,92.794 241.286,92.676 241.477 M306.839 244.894 C 305.277 246.971,304.000 248.919,304.000 249.222 C 304.000 249.732,311.991 285.715,312.138 285.868 C 312.197 285.930,317.074 280.574,321.504 275.581 L 323.209 273.661 316.764 257.730 C 313.219 248.969,310.174 241.646,309.998 241.459 C 309.822 241.271,308.400 242.817,306.839 244.894 M240.493 279.600 C 240.493 280.370,240.575 280.685,240.676 280.300 C 240.776 279.915,240.776 279.285,240.676 278.900 C 240.575 278.515,240.493 278.830,240.493 279.600 M240.901 287.400 C 240.905 288.280,240.987 288.593,241.083 288.095 C 241.179 287.598,241.175 286.878,241.075 286.495 C 240.975 286.113,240.896 286.520,240.901 287.400 M241.301 295.000 C 241.305 295.880,241.387 296.193,241.483 295.695 C 241.579 295.198,241.575 294.478,241.475 294.095 C 241.375 293.713,241.296 294.120,241.301 295.000 M199.900 302.293 C 200.835 302.377,202.365 302.377,203.300 302.293 C 204.235 302.209,203.470 302.140,201.600 302.140 C 199.730 302.140,198.965 302.209,199.900 302.293 M195.042 310.000 C 186.912 311.017,176.466 314.021,169.239 317.421 L 165.263 319.291 165.015 321.146 C 164.466 325.256,166.419 330.189,170.129 334.061 C 172.566 336.605,175.119 338.614,175.470 338.264 C 175.687 338.046,177.187 330.018,177.196 329.022 C 177.198 328.814,177.713 329.444,178.340 330.422 C 181.403 335.198,198.678 346.800,202.727 346.800 C 205.060 346.800,216.924 338.693,222.082 333.574 C 226.951 328.743,226.392 328.610,227.236 334.800 C 227.904 339.701,227.838 339.679,231.230 336.120 C 237.412 329.635,240.269 320.790,236.874 318.647 C 225.970 311.763,208.994 308.254,195.042 310.000 " stroke="none" fill="#601514" fill-rule="evenodd"></path><path id="path4" d="M267.337 97.800 C 267.339 99.560,267.409 100.230,267.493 99.289 C 267.578 98.349,267.577 96.909,267.491 96.089 C 267.405 95.270,267.336 96.040,267.337 97.800 M279.105 96.283 C 279.602 96.379,280.322 96.375,280.705 96.275 C 281.087 96.175,280.680 96.096,279.800 96.101 C 278.920 96.105,278.607 96.187,279.105 96.283 M285.305 96.287 C 285.914 96.379,286.814 96.377,287.305 96.282 C 287.797 96.187,287.300 96.111,286.200 96.114 C 285.100 96.117,284.697 96.195,285.305 96.287 M121.700 97.091 C 122.525 97.178,123.875 97.178,124.700 97.091 C 125.525 97.005,124.850 96.934,123.200 96.934 C 121.550 96.934,120.875 97.005,121.700 97.091 M277.693 100.000 C 277.693 100.770,277.775 101.085,277.876 100.700 C 277.976 100.315,277.976 99.685,277.876 99.300 C 277.775 98.915,277.693 99.230,277.693 100.000 M158.218 101.219 C 159.649 102.801,201.204 142.199,201.572 142.323 C 201.935 142.445,244.851 101.118,244.611 100.878 C 244.541 100.808,239.200 102.113,232.742 103.777 L 221.000 106.804 218.118 106.200 C 207.383 103.952,194.568 103.873,186.870 106.008 L 184.206 106.746 171.403 103.765 C 164.361 102.126,158.340 100.690,158.022 100.575 C 157.643 100.437,157.709 100.658,158.218 101.219 M173.000 104.950 L 184.200 107.554 186.876 106.809 C 194.785 104.608,208.639 104.784,219.210 107.220 C 220.864 107.601,221.898 107.409,231.162 105.002 C 236.739 103.553,241.450 102.420,241.629 102.484 C 241.809 102.548,237.871 106.545,232.878 111.367 C 227.885 116.190,218.831 124.961,212.757 130.860 L 201.715 141.584 183.357 124.154 C 161.670 103.563,159.930 101.850,161.000 102.134 C 161.440 102.251,166.840 103.518,173.000 104.950 M125.720 112.000 C 125.720 113.210,125.795 113.705,125.887 113.100 C 125.978 112.495,125.978 111.505,125.887 110.900 C 125.795 110.295,125.720 110.790,125.720 112.000 M278.101 113.800 C 278.105 114.680,278.187 114.993,278.283 114.495 C 278.379 113.998,278.375 113.278,278.275 112.895 C 278.175 112.513,278.096 112.920,278.101 113.800 M266.937 122.600 C 266.939 124.360,267.009 125.030,267.093 124.089 C 267.178 123.149,267.177 121.709,267.091 120.889 C 267.005 120.070,266.936 120.840,266.937 122.600 M93.116 169.897 C 94.499 169.975,96.659 169.974,97.916 169.895 C 99.172 169.816,98.040 169.752,95.400 169.753 C 92.760 169.753,91.732 169.818,93.116 169.897 M137.695 173.211 C 138.172 181.583,142.544 185.565,149.399 183.874 C 152.353 183.145,157.078 180.817,156.857 180.200 C 156.733 179.852,138.185 169.600,137.680 169.600 C 137.575 169.600,137.582 171.225,137.695 173.211 M255.471 174.804 C 250.230 177.601,245.927 180.050,245.909 180.245 C 245.847 180.926,251.708 183.547,254.344 184.016 C 260.692 185.146,264.265 181.811,265.239 173.844 C 265.477 171.901,265.520 170.178,265.336 170.015 C 265.151 169.851,260.712 172.006,255.471 174.804 M147.300 175.580 C 156.713 180.668,156.394 180.334,153.205 181.765 C 146.514 184.768,142.268 183.934,139.873 179.146 C 138.747 176.896,137.774 170.387,138.638 170.884 C 138.837 170.999,142.735 173.112,147.300 175.580 M264.612 173.442 C 263.430 182.900,258.365 185.782,249.983 181.765 C 248.391 181.002,247.200 180.266,247.337 180.130 C 247.875 179.591,263.834 171.225,264.346 171.213 C 264.777 171.203,264.833 171.675,264.612 173.442 M212.845 276.045 C 210.377 281.350,208.423 285.757,208.505 285.838 C 208.749 286.083,231.533 276.620,231.364 276.344 C 231.092 275.899,217.998 266.400,217.658 266.400 C 217.479 266.400,215.313 270.740,212.845 276.045 M178.507 271.311 C 174.715 273.780,171.613 275.890,171.613 276.000 C 171.613 276.213,194.496 286.458,194.608 286.296 C 194.782 286.044,186.120 267.041,185.785 266.939 C 185.573 266.874,182.298 268.842,178.507 271.311 M224.327 272.046 C 229.672 275.932,229.953 276.202,229.103 276.640 C 227.148 277.648,210.301 284.434,210.144 284.277 C 210.052 284.185,211.352 281.160,213.033 277.555 C 214.715 273.950,216.431 270.216,216.849 269.259 C 217.776 267.129,217.342 266.967,224.327 272.046 M189.439 276.309 C 191.441 280.869,193.049 284.642,193.012 284.694 C 192.856 284.915,173.649 276.167,173.595 275.850 C 173.530 275.472,184.738 268.046,185.400 268.029 C 185.620 268.023,187.438 271.749,189.439 276.309 M222.181 333.700 L 220.600 335.400 222.300 333.819 C 223.235 332.949,224.000 332.184,224.000 332.119 C 224.000 331.816,223.652 332.119,222.181 333.700 M180.800 333.800 C 181.546 334.570,182.247 335.200,182.357 335.200 C 182.467 335.200,181.946 334.570,181.200 333.800 C 180.454 333.030,179.753 332.400,179.643 332.400 C 179.533 332.400,180.054 333.030,180.800 333.800 M230.800 336.600 C 229.828 337.590,229.123 338.400,229.233 338.400 C 229.343 338.400,230.228 337.590,231.200 336.600 C 232.172 335.610,232.877 334.800,232.767 334.800 C 232.657 334.800,231.772 335.610,230.800 336.600 " stroke="none" fill="#291313" fill-rule="evenodd"></path></g></svg>